<svg width="32" height="32" viewBox="0 0 32 32" fill="none" xmlns="http://www.w3.org/2000/svg">
  <!-- 背景圆形 -->
  <circle cx="16" cy="16" r="16" fill="#f8fafc"/>
  
  <!-- 眼睛轮廓 - 上眼睑 -->
  <path d="M8 16c0-4.5 3.5-8 8-8s8 3.5 8 8" stroke="#8b5cf6" stroke-width="2" fill="none"/>
  
  <!-- 眼睛轮廓 - 下眼睑 -->
  <path d="M8 16c0 4.5 3.5 8 8 8s8-3.5 8-8" stroke="#8b5cf6" stroke-width="2" fill="none"/>
  
  <!-- 眼睛内部白色区域 -->
  <ellipse cx="16" cy="16" rx="6" ry="4" fill="white"/>
  
  <!-- 虹膜 -->
  <circle cx="16" cy="16" r="3" fill="#8b5cf6" fill-opacity="0.3"/>
  
  <!-- 瞳孔 -->
  <circle cx="16" cy="16" r="2" fill="#1e40af"/>
  
  <!-- 高光点 -->
  <circle cx="17" cy="15" r="0.8" fill="white"/>
  
  <!-- 左侧装饰曲线 -->
  <path d="M4 12c2-1 4-1 6 0" stroke="#8b5cf6" stroke-width="1.5" fill="none" stroke-linecap="round"/>
  <path d="M4 20c2 1 4 1 6 0" stroke="#8b5cf6" stroke-width="1.5" fill="none" stroke-linecap="round"/>
  
  <!-- 右侧装饰曲线 -->
  <path d="M22 12c2-1 4-1 6 0" stroke="#8b5cf6" stroke-width="1.5" fill="none" stroke-linecap="round"/>
  <path d="M22 20c2 1 4 1 6 0" stroke="#8b5cf6" stroke-width="1.5" fill="none" stroke-linecap="round"/>
</svg>