<svg width="32" height="32" viewBox="0 0 64 40" xmlns="http://www.w3.org/2000/svg">
  <!-- 渐变定义 -->
  <defs>
    <linearGradient id="faceGrad" x1="0%" y1="0%" x2="0%" y2="100%">
      <stop offset="0%" style="stop-color:#8b5cf6;stop-opacity:1" />
      <stop offset="50%" style="stop-color:#6366f1;stop-opacity:1" />
      <stop offset="100%" style="stop-color:#4338ca;stop-opacity:1" />
    </linearGradient>
    <linearGradient id="hatGrad" x1="0%" y1="0%" x2="0%" y2="100%">
      <stop offset="0%" style="stop-color:#1e1b4b;stop-opacity:1" />
      <stop offset="100%" style="stop-color:#0f0f23;stop-opacity:1" />
    </linearGradient>
  </defs>
  
  <!-- 胡须底部 -->
  <path d="M12 32 Q32 28 52 32 L56 40 H8 Z" fill="#2D1B69"/>
  
  <!-- 脸部轮廓 -->
  <path d="M32 12 L38 13 Q42 18 37 24 L35 29 Q29 30 24 28 L27 22 Q22 16 32 12" fill="url(#faceGrad)" stroke="#4338ca" stroke-width="1"/>
  
  <!-- 官帽 -->
  <path d="M27 12 L37 12 L40 6 L35 4 L24 6 Z" fill="url(#hatGrad)" stroke="#1e1b4b" stroke-width="1"/>
  
  <!-- 帽饰 -->
  <rect x="30" y="3" width="4" height="3" fill="#fbbf24" stroke="#f59e0b" stroke-width="0.5" rx="1"/>
  
  <!-- 胡须细节 -->
  <path d="M27 23 Q22 32 19 37 M30 25 Q30 34 29 39 M35 24 Q40 33 43 36" 
        stroke="#1e1b4b" stroke-width="1.5" fill="none" stroke-linecap="round"/>
  
  <!-- 眼睛 -->
  <ellipse cx="29" cy="17" rx="1.5" ry="1" fill="#1e1b4b"/>
  <ellipse cx="35" cy="17" rx="1.5" ry="1" fill="#1e1b4b"/>
  <circle cx="29.5" cy="16.5" r="0.3" fill="white"/>
  <circle cx="35.5" cy="16.5" r="0.3" fill="white"/>
  
  <!-- 鼻子 -->
  <path d="M32 18 L32.5 19 L32 20 L31.5 19 Z" fill="#6366f1"/>
  
  <!-- 嘴巴 -->
  <path d="M30 21 Q32 22 34 21" stroke="#1e1b4b" stroke-width="0.8" fill="none" stroke-linecap="round"/>
  
  <!-- 面部轮廓线 -->
  <path d="M33 15 Q37 15.5 39 15" stroke="#4338ca" stroke-width="0.5" fill="none" stroke-linecap="round"/>
</svg>